<svg xmlns="http://www.w3.org/2000/svg" viewBox="0 0 200 200">
  <!-- Background circle -->
  <circle cx="100" cy="100" r="90" fill="#f8f8f8" stroke="#4a63e3" stroke-width="4"/>
  
  <!-- Shopping bag outline -->
  <path d="M130,75 v-15 c0,-16.5 -13.5,-30 -30,-30 s-30,13.5 -30,30 v15 h-10 v65 c0,5.5 4.5,10 10,10 h60 c5.5,0 10,-4.5 10,-10 v-65 z" 
        fill="#ffffff" stroke="#4a63e3" stroke-width="4" stroke-linejoin="round"/>
  
  <!-- Bag handles -->
  <path d="M80,75 v-15 c0,-11 9,-20 20,-20 s20,9 20,20 v15" 
        fill="none" stroke="#4a63e3" stroke-width="4" stroke-linecap="round"/>
  
  <!-- T for Trend -->
  <path d="M85,100 h30 m-15,-15 v30" stroke="#4a63e3" stroke-width="6" stroke-linecap="round"/>
  
  <!-- Upward trend arrow -->
  <path d="M70,135 l15,-15 l15,10 l15,-25" 
        fill="none" stroke="#4a63e3" stroke-width="4" stroke-linecap="round" stroke-linejoin="round"/>
  
  <!-- Arrow head -->
  <path d="M120,105 l-5,10 h10 z" fill="#4a63e3"/>
</svg>
